<svg height="389pt" viewBox="0 0 389 389.16815" width="389pt" xmlns="http://www.w3.org/2000/svg"><path d="m285.425781 382.339844h-161.152343c-23.667969 0-44.527344-15.542969-51.292969-38.222656l-45.625-152.921876v-20.480468h354.988281v20.480468l-45.621094 152.921876c-6.765625 22.679687-27.625 38.222656-51.296875 38.222656zm0 0" fill="#0f65e5"/><path d="m285.429688 389.167969h-161.160157c-26.480469 0-50.265625-17.726563-57.832031-43.101563l-45.621094-152.917968c-.191406-.632813-.285156-1.292969-.285156-1.957032v-20.476562c0-3.773438 3.050781-6.828125 6.824219-6.828125h354.988281c3.773438 0 6.828125 3.054687 6.828125 6.828125v20.476562c0 .664063-.09375 1.320313-.289063 1.957032l-45.617187 152.917968c-7.570313 25.375-31.355469 43.101563-57.835937 43.101563zm-251.246094-198.972657 45.332031 151.964844c5.859375 19.640625 24.261719 33.355469 44.753906 33.355469h161.160157c20.496093 0 38.894531-13.714844 44.753906-33.355469l45.332031-151.964844v-12.652343h-341.332031zm0 0" fill="#0e65e5"/><path d="m355.035156 150.234375c0 41.472656-33.617187 75.09375-75.089844 75.09375-41.476562 0-75.09375-33.621094-75.09375-75.09375s33.617188-75.09375 75.09375-75.09375c41.472657 0 75.089844 33.621094 75.089844 75.09375zm0 0" fill="#94c1ff"/><path d="m279.945312 232.15625c-45.175781 0-81.921874-36.746094-81.921874-81.921875 0-45.171875 36.746093-81.917969 81.921874-81.917969 45.171876 0 81.917969 36.746094 81.917969 81.917969 0 45.175781-36.746093 81.921875-81.917969 81.921875zm0-150.1875c-37.640624 0-68.269531 30.625-68.269531 68.265625s30.628907 68.265625 68.269531 68.265625c37.640626 0 68.265626-30.625 68.265626-68.265625s-30.625-68.265625-68.265626-68.265625zm0 0" fill="#0e65e5"/><path d="m251.011719 132.109375c-1.582031 0-3.167969-.546875-4.460938-1.660156-2.851562-2.460938-3.171875-6.773438-.707031-9.628907 8.566406-9.925781 20.996094-15.621093 34.101562-15.621093 8.589844 0 16.945313 2.433593 24.15625 7.027343 3.179688 2.027344 4.113282 6.246094 2.09375 9.425782-2.027343 3.1875-6.25 4.113281-9.425781 2.09375-5.019531-3.199219-10.839843-4.890625-16.824219-4.890625-9.132812 0-17.792968 3.964843-23.765624 10.886719-1.351563 1.566406-3.257813 2.367187-5.167969 2.367187zm0 0" fill="#fff"/><path d="m166.726562 207.355469c-12.097656 14.457031-33.621093 16.375-48.082031 4.28125l-99.496093-83.214844c-14.460938-12.097656-16.375-33.621094-4.28125-48.082031 12.09375-14.460938 19.316406-12.023438 48.082031-4.285156 41.691406 11.21875 87.304687 55.222656 99.492187 83.21875 12.183594 27.992187 16.375 33.621093 4.285156 48.082031zm0 0" fill="#d7e9ff"/><path d="m140.476562 226.414062c-9.585937 0-18.773437-3.316406-26.214843-9.539062l-99.492188-83.21875c-8.394531-7.015625-13.546875-16.882812-14.519531-27.78125s2.359375-21.519531 9.386719-29.914062c14.550781-17.425782 25.746093-14.40625 52.800781-7.113282l2.285156.613282c42.148438 11.339843 90.5 56.128906 103.980469 87.085937l2.894531 6.601563c10.011719 22.699218 14.160156 32.09375.359375 48.585937-7.011719 8.394531-16.878906 13.546875-27.777343 14.519531-1.242188.109375-2.476563.160156-3.703126.160156zm-106.898437-149.738281c-5.875 0-8.828125 2.488281-13.46875 8.039063-4.6875 5.601562-6.90625 12.679687-6.257813 19.949218.644532 7.265626 4.085938 13.84375 9.679688 18.523438l99.492188 83.214844c5.601562 4.679687 12.734374 6.914062 19.941406 6.253906 7.265625-.648438 13.847656-4.085938 18.519531-9.679688 8.160156-9.753906 7.601563-11.699218-2.378906-34.320312l-2.921875-6.652344c-12.011719-27.59375-57.070313-69.148437-95.003906-79.351562l-2.296876-.621094c-12.753906-3.433594-20.152343-5.355469-25.304687-5.355469zm0 0" fill="#0e65e5"/><path d="m66.371094 121.347656c-3.496094 0-6.46875-2.660156-6.792969-6.207031-.339844-3.753906 2.425781-7.074219 6.179687-7.421875l52.683594-4.796875c3.789063-.355469 7.082032 2.425781 7.421875 6.179687.34375 3.753907-2.425781 7.074219-6.179687 7.417969l-52.6875 4.800781c-.210938.019532-.421875.027344-.625.027344zm0 0" fill="#0e65e5"/><path d="m108.257812 156.390625c-3.335937 0-6.253906-2.441406-6.75-5.835937-.542968-3.734376 2.035157-7.199219 5.761719-7.746094l41.972657-6.152344c3.808593-.585938 7.207031 2.03125 7.746093 5.761719.546875 3.734375-2.03125 7.199219-5.757812 7.746093l-41.972657 6.152344c-.339843.050782-.675781.074219-1 .074219zm0 0" fill="#0e65e5"/><path d="m285.425781 361.863281h-161.152343c-23.667969 0-44.527344-15.546875-51.292969-38.226562l-45.625-152.921875h354.988281l-45.621094 152.921875c-6.765625 22.679687-27.625 38.226562-51.296875 38.226562zm0 0" fill="#5c9eff"/><g fill="#0e65e5"><path d="m285.429688 368.6875h-161.160157c-26.480469 0-50.265625-17.726562-57.832031-43.097656l-45.621094-152.921875c-.617187-2.066407-.21875-4.308594 1.066406-6.035157 1.289063-1.726562 3.320313-2.746093 5.472657-2.746093h354.988281c2.152344 0 4.1875 1.023437 5.472656 2.746093 1.289063 1.726563 1.6875 3.96875 1.066406 6.035157l-45.617187 152.921875c-7.570313 25.371094-31.355469 43.097656-57.835937 43.097656zm-248.914063-191.144531 43 144.136719c5.859375 19.640624 24.261719 33.355468 44.753906 33.355468h161.160157c20.496093 0 38.894531-13.714844 44.753906-33.355468l43-144.136719zm0 0"/><path d="m361.863281 238.980469h-314.027343c-3.773438 0-6.824219-3.050781-6.824219-6.824219s3.050781-6.828125 6.824219-6.828125h314.027343c3.773438 0 6.828125 3.054687 6.828125 6.828125s-3.054687 6.824219-6.828125 6.824219zm0 0"/><path d="m341.382812 314.074219h-273.066406c-3.773437 0-6.828125-3.050781-6.828125-6.824219s3.054688-6.828125 6.828125-6.828125h273.066406c3.773438 0 6.828126 3.054687 6.828126 6.828125s-3.054688 6.824219-6.828126 6.824219zm0 0"/><path d="m130.324219 368.6875c-3.773438 0-6.828125-3.050781-6.828125-6.824219v-191.148437c0-3.773438 3.054687-6.828125 6.828125-6.828125 3.773437 0 6.824219 3.054687 6.824219 6.828125v191.148437c0 3.773438-3.050782 6.824219-6.824219 6.824219zm0 0"/><path d="m273.117188 368.6875c-3.773438 0-6.828126-3.050781-6.828126-6.824219v-191.148437c0-3.773438 3.054688-6.828125 6.828126-6.828125 3.773437 0 6.828124 3.054687 6.828124 6.828125v191.148437c0 3.773438-3.054687 6.824219-6.828124 6.824219zm0 0"/><path d="m334.730469 105.742188c-.511719 0-1.03125-.054688-1.550781-.179688-3.675782-.851562-5.960938-4.519531-5.101563-8.195312l13.484375-57.90625c.855469-3.679688 4.519531-6 8.195312-5.097657 3.671876.851563 5.960938 4.519531 5.101563 8.191407l-13.488281 57.910156c-.734375 3.152344-3.539063 5.277344-6.640625 5.277344zm0 0"/></g><path d="m333.972656 67.546875s-83.074218-22.585937-58.414062-53.832031c24.65625-31.246094 58.414062 53.832031 58.414062 53.832031zm0 0" fill="#94c1ff"/><path d="m333.96875 74.375c-.601562 0-1.199219-.078125-1.792969-.242188-5.964843-1.617187-58.578125-16.585937-66.859375-41.683593-1.78125-5.402344-2.382812-13.761719 4.878906-22.960938 7.160157-9.074219 14.933594-10.035156 20.1875-9.285156 24.464844 3.578125 45.886719 54.632813 49.933594 64.824219.953125 2.40625.464844 5.140625-1.253906 7.066406-1.3125 1.472656-3.179688 2.28125-5.09375 2.28125zm-46.457031-60.738281c-1.347657 0-3.648438.570312-6.59375 4.304687-3.800781 4.8125-3.328125 8.140625-2.640625 10.226563 3.554687 10.777343 24.792968 21.539062 43.351562 28.273437-9.5625-19.921875-23.257812-41.277344-33.21875-42.726562-.226562-.035156-.527344-.078125-.898437-.078125zm0 0" fill="#0e65e5"/><path d="m204.285156 368.6875c-3.773437 0-6.828125-3.050781-6.828125-6.824219v-191.148437c0-3.773438 3.054688-6.828125 6.828125-6.828125 3.773438 0 6.824219 3.054687 6.824219 6.828125v191.148437c0 3.773438-3.050781 6.824219-6.824219 6.824219zm0 0" fill="#0e65e5"/><path d="m245.808594 375.515625c-3.773438 0-6.824219-3.054687-6.824219-6.828125v-27.304688c0-3.773437 3.050781-6.828124 6.824219-6.828124 3.773437 0 6.828125 3.054687 6.828125 6.828124v27.304688c0 3.773438-3.054688 6.828125-6.828125 6.828125zm0 0" fill="#fff"/><path d="m259.464844 361.863281h-27.308594c-3.773438 0-6.824219-3.054687-6.824219-6.828125 0-3.773437 3.050781-6.828125 6.824219-6.828125h27.308594c3.773437 0 6.824218 3.054688 6.824218 6.828125 0 3.773438-3.050781 6.828125-6.824218 6.828125zm0 0" fill="#fff"/></svg>